<svg width="153" height="23" viewBox="0 0 153 23" fill="none" xmlns="http://www.w3.org/2000/svg">
<path d="M42.7402 22.6667H54.3815C55.213 22.6667 55.712 22.5 56.2109 22.3333C56.7098 22.1667 57.2087 21.6667 57.7076 21.1667L59.8696 19C60.3685 18.5 60.7011 18 60.8674 17.5C61.0337 17 61.2 16.3333 61.2 15.6667V6.83333C61.2 6.16667 61.0337 5.5 60.8674 5C60.7011 4.5 60.3685 4 59.8696 3.5L57.7076 1.33333C57.2087 0.833333 56.7098 0.5 56.2109 0.166667C55.712 0.166667 55.0467 0 54.3815 0H42.7402C42.075 0 41.7424 0.333333 41.7424 1V21.6667C41.7424 22.3333 42.075 22.6667 42.7402 22.6667ZM47.8957 5.5C47.8957 5.33333 48.062 5.16667 48.2283 5.16667H52.5522C52.8848 5.16667 53.0511 5.16667 53.2174 5.33333C53.3837 5.33333 53.55 5.5 53.8826 5.83333L54.5478 6.5C54.7141 6.66667 54.8804 6.83333 54.8804 7C54.8804 7.16667 55.0467 7.5 55.0467 7.83333V15C55.0467 15.3333 55.0467 15.5 54.8804 15.8333C54.8804 16 54.7141 16.1667 54.3815 16.5L53.7163 17.1667C53.55 17.3333 53.2174 17.5 53.0511 17.6667C52.8848 17.6667 52.5522 17.8333 52.3859 17.8333H48.062C47.8957 17.8333 47.7294 17.6667 47.7294 17.5V5.5H47.8957ZM125.56 0H110.925C110.26 0 109.927 0.333333 109.927 1V21.6667C109.927 22.3333 110.26 22.6667 110.925 22.6667H125.56C126.225 22.6667 126.558 22.3333 126.558 21.6667V18.5C126.558 17.8333 126.225 17.5 125.56 17.5H116.247C116.08 17.5 115.914 17.3333 115.914 17.1667V14C115.914 13.8333 116.08 13.6667 116.247 13.6667H124.063C124.728 13.6667 125.061 13.3333 125.061 12.6667V9.66667C125.061 9 124.728 8.66667 124.063 8.66667H116.247C116.08 8.66667 115.914 8.5 115.914 8.33333V5.5C115.914 5.33333 116.08 5.16667 116.247 5.16667H125.56C126.225 5.16667 126.558 4.83333 126.558 4.16667V1C126.558 0.333333 126.225 0 125.56 0ZM80.6576 21.1667L82.8196 19C83.3185 18.5 83.6511 18 83.8174 17.5C83.9837 17 84.15 16.3333 84.15 15.6667V6.83333C84.15 6.16667 83.9837 5.5 83.8174 5C83.6511 4.5 83.3185 4 82.8196 3.5L80.6576 1.33333C80.1587 0.833333 79.6598 0.5 79.1609 0.166667C78.662 0.166667 77.9967 0 77.1652 0H70.8456C70.0141 0 69.5152 0.166667 69.0163 0.333333C68.5174 0.5 68.0185 0.833333 67.5196 1.5L65.3576 3.66667C64.8587 4.16667 64.5261 4.66667 64.3598 5.16667C64.1935 5.66667 64.0272 6.33333 64.0272 7V16C64.0272 16.6667 64.1935 17.3333 64.3598 17.8333C64.5261 18.3333 64.8587 18.8333 65.3576 19.3333L67.5196 21.5C68.0185 22 68.5174 22.3333 69.0163 22.6667C69.5152 22.8333 70.1804 23 70.8456 23H77.1652C77.9967 23 78.4957 22.8333 78.9946 22.6667C79.4935 22.1667 79.9924 21.6667 80.6576 21.1667ZM77.9967 14.8333C77.9967 15.1667 77.9967 15.3333 77.8304 15.6667C77.8304 15.8333 77.6641 16 77.3315 16.3333L76.6663 17C76.5 17.1667 76.1674 17.3333 76.0011 17.5C75.8348 17.5 75.5022 17.6667 75.3359 17.6667H72.675C72.3424 17.6667 72.1761 17.6667 72.0098 17.5C71.8435 17.5 71.6772 17.3333 71.3446 17L70.6794 16.3333C70.513 16.1667 70.3467 16 70.1804 15.6667C70.1804 15.5 70.0141 15.1667 70.0141 14.8333V7.66667C70.0141 7.33333 70.0141 7.16667 70.1804 6.83333C70.1804 6.66667 70.3467 6.5 70.6794 6.16667L71.3446 5.5C71.5109 5.33333 71.8435 5.16667 72.0098 5C72.1761 5 72.5087 4.83333 72.675 4.83333H75.3359C75.6685 4.83333 75.8348 4.83333 76.0011 5C76.1674 5 76.3337 5.16667 76.6663 5.5L77.3315 6.16667C77.4978 6.33333 77.6641 6.66667 77.8304 6.83333C77.8304 7 77.9967 7.33333 77.9967 7.66667V14.8333ZM152.834 1.33333C152.834 1.16667 152.667 1 152.501 0.833333L152.002 0.333333C151.836 0.166667 151.67 0 151.503 0H131.048C130.383 0 130.05 0.333333 130.05 1V21.6667C130.05 22.3333 130.383 22.6667 131.048 22.6667H134.208C134.54 22.6667 134.707 22.6667 134.873 22.5C135.039 22.5 135.205 22.3333 135.372 22.1667L152.501 4.83333C152.667 4.66667 152.834 4.5 152.834 4.33333C153 4.16667 153 4 153 3.83333V2.16667C153 1.83333 153 1.5 152.834 1.33333ZM4.82283 22.3333C5.32174 22.5 5.98696 22.6667 6.65217 22.6667H16.963C17.6283 22.6667 17.9609 22.3333 17.9609 21.6667V11.6667C17.9609 11 17.6283 10.6667 16.963 10.6667H13.138C12.4728 10.6667 12.1402 11 12.1402 11.6667V17.3333C12.1402 17.5 11.9739 17.6667 11.8076 17.6667H8.98044C8.64783 17.6667 8.48152 17.6667 8.31522 17.5C8.14891 17.5 7.98261 17.3333 7.65 17L6.65217 16.3333C6.31957 16 6.31957 15.8333 6.15326 15.6667C6.15326 15.5 5.98696 15.1667 5.98696 14.8333V7.66667C5.98696 7.33333 5.98696 7.16667 6.15326 6.83333C6.31957 6.83333 6.31957 6.66667 6.65217 6.33333L7.15109 5.83333C7.31739 5.66667 7.65 5.5 7.8163 5.33333C7.98261 5.33333 8.31522 5.16667 8.48152 5.16667H16.4641C17.1293 5.16667 17.462 4.83333 17.462 4.16667V1C17.462 0.333333 17.1293 0 16.4641 0H6.81848C5.98696 0 5.32174 0.166667 4.82283 0.333333C4.49022 0.5 3.9913 0.833333 3.49239 1.5L1.33043 3.5C0.831522 4 0.498913 4.5 0.332609 5C0.166304 5.5 0 6.16667 0 6.83333V15.8333C0 16.5 0.166304 17.1667 0.332609 17.6667C0.498913 18.1667 0.831522 18.6667 1.33043 19.1667L3.49239 21.3333C3.9913 21.6667 4.49022 22.1667 4.82283 22.3333ZM103.441 14C103.275 13.8333 103.275 13.6667 103.275 13.5C103.275 13.3333 103.275 13.1667 103.441 13.1667L105.104 11.5C105.603 11 105.936 10.5 106.102 10.1667C106.268 9.83333 106.435 9.16667 106.435 8.5V5.83333C106.435 5.16667 106.268 4.66667 106.102 4.16667C105.936 3.66667 105.603 3.16667 105.104 2.66667L103.774 1.33333C103.275 0.833333 102.776 0.5 102.277 0.166667C101.945 0.166667 101.279 0 100.448 0H88.1413C87.4761 0 87.1435 0.333333 87.1435 1V21.6667C87.1435 22.3333 87.4761 22.6667 88.1413 22.6667H92.1326C92.7978 22.6667 93.1304 22.3333 93.1304 21.6667V15.6667C93.1304 15.5 93.2967 15.3333 93.463 15.3333H96.9554C97.288 15.3333 97.6207 15.5 97.787 15.8333L100.448 21.8333C100.614 22.3333 101.113 22.6667 101.612 22.6667H105.936C106.268 22.6667 106.601 22.5 106.767 22.3333C106.934 22.1667 106.934 21.8333 106.767 21.5L103.441 14ZM100.282 8.33333C100.282 8.66667 100.282 8.83333 100.115 9C100.115 9.16667 99.9489 9.33333 99.7826 9.5L99.45 10C99.2837 10.1667 99.1174 10.3333 98.9511 10.3333C98.7848 10.3333 98.6185 10.5 98.2859 10.5H93.6293C93.463 10.5 93.2967 10.3333 93.2967 10.1667V5C93.2967 4.83333 93.463 4.66667 93.6293 4.66667H98.2859C98.6185 4.66667 98.7848 4.66667 98.9511 4.83333C99.1174 4.83333 99.2837 5 99.45 5.16667L99.9489 5.66667C100.115 5.83333 100.282 6 100.282 6.16667C100.282 6.33333 100.448 6.5 100.448 6.83333L100.282 8.33333ZM22.6174 22.6667H37.2522C37.9174 22.6667 38.25 22.3333 38.25 21.6667V18.5C38.25 17.8333 37.9174 17.5 37.2522 17.5H27.9391C27.7728 17.5 27.6065 17.3333 27.6065 17.1667V14C27.6065 13.8333 27.7728 13.6667 27.9391 13.6667H35.7554C36.4207 13.6667 36.7533 13.3333 36.7533 12.6667V9.66667C36.7533 9 36.4207 8.66667 35.7554 8.66667H27.9391C27.7728 8.66667 27.6065 8.5 27.6065 8.33333V5.5C27.6065 5.33333 27.7728 5.16667 27.9391 5.16667H37.2522C37.9174 5.16667 38.25 4.83333 38.25 4.16667V1C38.25 0.333333 37.9174 0 37.2522 0H22.6174C21.9522 0 21.6196 0.333333 21.6196 1V21.6667C21.6196 22.3333 21.9522 22.6667 22.6174 22.6667Z" fill="#004C95"/>
</svg>
