<svg width="20" height="24" viewBox="0 0 20 24" fill="none" xmlns="http://www.w3.org/2000/svg">
<path d="M17.5 24H2.5C1.83696 24 1.20107 23.7472 0.732233 23.2971C0.263392 22.847 0 22.2366 0 21.6001V2.40095C0 1.76446 0.263392 1.15404 0.732233 0.703969C1.20107 0.253901 1.83696 0.00105586 2.5 0.00105586H11.25C11.2612 -0.000351954 11.2725 -0.000351954 11.2838 0.00105586H11.2913C11.3031 0.00459772 11.3152 0.00700941 11.3275 0.0082556C11.4375 0.0154553 11.5463 0.0358542 11.6512 0.0694528H11.7037C11.7268 0.0849548 11.7486 0.102209 11.7688 0.12105C11.9049 0.179179 12.029 0.260486 12.135 0.36104L19.635 7.56072C19.7398 7.66246 19.8245 7.78158 19.885 7.91231C19.8959 7.93825 19.9055 7.96468 19.9137 7.9915L19.9263 8.0251C19.9613 8.1247 19.9812 8.22909 19.9875 8.33469C19.9886 8.34664 19.9915 8.35837 19.9963 8.36949V8.37669C19.9983 8.38456 19.9995 8.39259 20 8.40069V21.6001C20 22.2366 19.7366 22.847 19.2678 23.2971C18.7989 23.7472 18.163 24 17.5 24ZM13.03 14.4004V20.4002H14.205V17.9523H16.03V16.9467H14.205V15.4096H16.25V14.4004H13.03ZM8.405 14.4004V20.4002H9.9125C10.2247 20.415 10.5364 20.3623 10.8246 20.246C11.1128 20.1297 11.3701 19.9527 11.5775 19.7282C12.0086 19.2001 12.2246 18.5393 12.185 17.8695V16.8975C12.2141 16.2347 11.992 15.5842 11.56 15.0664C11.1538 14.6224 10.56 14.3776 9.94375 14.4004H8.405ZM3.75 14.4004V20.4002H4.925V18.2895H5.7075C6.23 18.317 6.74 18.1311 7.1125 17.7783C7.46736 17.397 7.65149 16.897 7.625 16.3863C7.6482 15.8634 7.46418 15.3515 7.11 14.9536C6.93697 14.7694 6.72361 14.6243 6.48522 14.5286C6.24684 14.433 5.98935 14.3892 5.73125 14.4004H3.75ZM11.25 2.40095V8.40069H17.5L11.25 2.40095ZM9.9325 19.3946H9.58V15.4096H10.0075C10.1569 15.4011 10.3061 15.4288 10.4415 15.49C10.5769 15.5512 10.6941 15.644 10.7825 15.76C10.9663 16.1235 11.045 16.5279 11.01 16.9311V17.9739C11.0375 18.3578 10.9513 18.7418 10.76 19.079C10.6591 19.1921 10.531 19.2799 10.3868 19.3349C10.2427 19.3899 10.0868 19.4104 9.9325 19.3946ZM5.73125 17.2803H4.92375V15.4096H5.7425C5.84305 15.4106 5.94168 15.4362 6.02913 15.4838C6.11659 15.5315 6.19001 15.5996 6.2425 15.682C6.3775 15.8968 6.4425 16.1439 6.43 16.3947C6.44567 16.6281 6.38112 16.86 6.24625 17.0547C6.18496 17.1286 6.10637 17.1875 6.01688 17.2267C5.92739 17.2659 5.82953 17.2843 5.73125 17.2803Z" fill="#A74951"/>
</svg>
